<svg version="1.1" id="Layer_1" xmlns="http://www.w3.org/2000/svg" xmlns:xlink="http://www.w3.org/1999/xlink" x="0px" y="0px"
	 width="100%" viewBox="0 0 1080 1080" enable-background="new 0 0 1080 1080" xml:space="preserve">
<path fill="#000000" opacity="1.000000" stroke="none" 
	d="
M521.000000,1081.000000 
	C347.353302,1081.000000 174.206635,1081.000000 1.029974,1081.000000 
	C1.029974,721.061523 1.029974,361.123047 1.029974,1.092287 
	C360.896912,1.092287 720.793823,1.092287 1080.845459,1.092287 
	C1080.845459,360.999939 1080.845459,720.999939 1080.845459,1081.000000 
	C894.455872,1081.000000 707.977966,1081.000000 521.000000,1081.000000 
M182.960068,576.034912 
	C182.960068,576.034912 182.900223,576.054871 182.998123,576.703064 
	C183.651352,577.506775 184.304565,578.310547 185.018753,579.819458 
	C195.441498,596.771057 205.864227,613.722717 216.334671,630.751892 
	C263.069244,605.202942 310.072510,579.507080 357.094727,553.800842 
	C349.893158,540.397522 343.003204,527.380798 335.888367,514.488159 
	C334.382965,511.760284 332.054901,509.486389 329.424713,506.135498 
	C327.481598,510.476959 326.337891,513.535156 324.797363,516.378357 
	C320.489716,524.328735 315.539764,532.649170 305.514496,532.701050 
	C295.789978,532.751465 285.908051,531.056152 276.360199,528.934937 
	C265.701355,526.566833 259.808075,517.376465 253.035095,509.813965 
	C248.962784,505.266998 245.541382,500.137054 240.997635,494.181396 
	C241.136017,496.721985 241.067383,497.726562 241.261337,498.677612 
	C243.592346,510.107056 243.979202,521.423889 240.002563,532.650085 
	C234.882904,547.103027 221.421204,556.292053 206.461090,554.930481 
	C198.958618,554.247620 191.514587,552.922729 183.639191,551.274597 
	C181.759720,550.905518 179.880234,550.536438 177.355133,550.030945 
	C176.918121,549.983276 176.481110,549.935608 175.619980,549.262268 
	C171.212372,548.100525 166.804749,546.938782 162.397141,545.777039 
	C162.009491,546.321594 161.621841,546.866150 161.234177,547.410645 
	C164.469574,551.305420 167.704971,555.200195 170.960968,559.034851 
	C170.960968,559.034851 170.901093,559.056152 170.999481,559.716064 
	C171.979767,560.842407 172.960068,561.968750 173.959808,563.034973 
	C173.959808,563.034973 173.899918,563.055054 173.997604,563.699158 
	C174.645264,564.497864 175.292923,565.296570 175.960876,566.035156 
	C175.960876,566.035156 175.901016,566.056152 175.999527,566.716003 
	C176.979858,567.842285 177.960190,568.968567 178.960114,570.034851 
	C178.960114,570.034851 178.900223,570.054993 178.997681,570.699097 
	C179.645264,571.497925 180.292847,572.296692 180.959534,573.035400 
	C180.959534,573.035400 180.899658,573.055237 180.997406,573.699341 
	C181.645187,574.497864 182.292969,575.296448 182.960068,576.034912 
M161.953033,758.971497 
	C161.953033,758.971497 161.944458,758.899048 161.225235,759.003479 
	C158.451859,760.649292 155.678482,762.295105 152.965302,763.963684 
	C152.965302,763.963684 152.942184,763.903625 152.282013,764.007996 
	C152.507309,765.043335 152.732605,766.078674 153.244858,767.718506 
	C163.067749,780.313965 172.890640,792.909363 182.673004,805.452820 
	C202.995056,795.854736 223.778885,786.038513 244.595718,776.206726 
	C246.836243,780.714783 248.792404,784.650635 250.984482,789.061157 
	C230.458099,798.783081 210.104553,808.423096 189.669891,818.101624 
	C194.072037,825.098938 202.300171,828.613892 212.164169,829.059814 
	C228.553696,829.800781 244.052444,825.770508 259.550201,821.223816 
	C278.445984,815.680298 295.434540,806.230408 312.210480,796.272583 
	C325.127075,788.605469 338.056427,780.959839 350.296112,773.709839 
	C348.785889,767.381531 346.463928,761.590393 346.175262,755.699524 
	C345.329163,738.431458 354.480560,725.842529 366.803925,715.016785 
	C368.059601,713.913696 369.829620,712.387634 369.848053,711.037109 
	C370.091705,693.193359 370.690460,675.325928 366.415985,657.741699 
	C363.528442,645.863037 360.680023,634.105469 361.777527,621.494507 
	C363.168365,605.513184 368.025940,591.159119 376.970490,577.973206 
	C382.413361,569.949463 389.785156,564.146790 397.800507,558.123962 
	C400.078400,598.288147 414.626038,633.304260 435.985931,666.612366 
	C438.161957,665.213135 439.432434,663.664185 440.464355,661.969971 
	C449.721985,646.770142 455.701111,630.360474 456.867798,612.583618 
	C457.655853,600.575867 452.061615,590.293945 445.261261,580.877075 
	C435.379578,567.193420 435.931824,552.188599 438.610687,536.888489 
	C447.144989,546.205200 455.637360,555.476135 464.697235,565.366577 
	C466.583588,561.674622 467.896301,559.438232 468.907837,557.072998 
	C477.169434,537.755249 486.133728,518.822632 498.166718,501.480469 
	C504.969818,491.675720 514.994568,485.903412 524.925232,478.669128 
	C524.137512,482.364166 523.509644,485.033813 523.004150,487.726501 
	C520.379761,501.703918 517.361755,515.625671 515.325867,529.689087 
	C513.864380,539.784363 513.468811,550.062927 513.127502,560.277466 
	C512.983093,564.599304 514.223877,568.448425 518.795898,571.269653 
	C521.716553,573.071899 524.086914,577.337280 524.778137,580.874695 
	C526.563354,590.011475 527.279968,599.356995 528.565491,609.770752 
	C531.002197,607.623779 533.810425,606.257446 534.822388,604.062866 
	C538.841370,595.346802 543.681396,586.672607 545.690613,577.433411 
	C550.553162,555.072998 553.657410,532.336487 558.125854,509.882050 
	C561.588989,492.479614 566.043579,475.274506 570.057495,457.981659 
	C575.308533,492.509247 576.926453,527.401123 586.478699,561.139221 
	C587.681580,560.874268 588.247864,560.896973 588.606567,560.635193 
	C589.118164,560.261902 589.657166,559.748901 589.876038,559.177490 
	C597.277771,539.850220 602.631226,520.260620 598.085632,499.259674 
	C597.291626,495.591309 596.919739,491.716187 597.114563,487.976257 
	C597.403442,482.431122 600.839478,480.742035 605.874878,482.931732 
	C610.545654,484.962921 611.087830,489.299408 611.969971,493.386719 
	C616.091980,512.486633 621.676208,531.073730 630.801147,548.459534 
	C632.265808,551.250122 634.056274,553.720581 637.645691,552.920593 
	C650.019958,550.162659 659.663086,543.999817 664.032776,531.356445 
	C666.647278,523.791687 669.367004,516.262146 672.135498,508.752289 
	C674.346069,502.756104 679.227417,500.892700 683.542847,505.173431 
	C685.467834,507.083008 686.145386,511.537201 685.551514,514.463623 
	C683.574036,524.208252 680.487427,533.722839 678.342102,543.439575 
	C675.593567,555.888794 673.345825,568.448547 670.387512,581.321472 
	C674.118286,584.477966 675.796814,580.677063 678.695740,578.992920 
	C679.144470,578.700134 679.593140,578.407349 680.690613,578.005371 
	C681.498474,577.351013 682.306396,576.696594 683.695740,575.992920 
	C684.144409,575.700134 684.593140,575.407349 685.690674,575.005371 
	C686.498718,574.351074 687.306702,573.696777 688.828552,572.980103 
	C694.999268,569.294250 701.224304,565.695862 707.331421,561.907532 
	C735.017212,544.733643 762.694031,527.544983 790.315796,510.268494 
	C796.590027,506.344208 796.595947,503.600250 790.357727,500.147644 
	C776.161011,492.290253 762.015137,484.314514 747.549438,476.976471 
	C730.279663,468.216064 712.909302,459.590424 695.192871,451.791473 
	C676.499451,443.562439 657.394104,436.256317 638.377747,428.778351 
	C626.292725,424.026123 614.087097,423.731567 602.141479,429.433777 
	C589.276367,435.574860 576.212769,441.369598 563.709717,448.184937 
	C540.551453,460.808319 517.512207,473.684082 494.837006,487.151245 
	C464.436371,505.206726 434.667542,524.330200 404.186829,542.245483 
	C371.985260,561.172180 339.322418,579.318481 306.748535,597.605286 
	C291.167297,606.352539 275.271240,614.537048 259.615295,623.153748 
	C234.626343,636.907043 209.719940,650.810242 184.776505,664.646240 
	C162.988449,676.731934 141.335709,689.072998 119.328415,700.745422 
	C112.194519,704.529175 109.419731,709.695679 114.001350,717.567627 
	C118.105919,724.619873 122.738228,731.404175 127.598633,737.965210 
	C131.578094,743.337158 136.236176,748.206421 140.698395,753.421143 
	C169.411942,738.647461 197.598404,724.154175 225.775650,709.642944 
	C237.751617,703.475342 249.735809,697.322388 261.650940,691.038879 
	C264.170929,689.709961 265.717194,690.449951 266.849609,692.635620 
	C268.542389,695.902771 270.076996,699.251953 271.609222,702.422180 
	C257.581665,709.714600 243.918930,716.902710 230.179413,723.940796 
	C207.807861,735.400635 185.386078,746.762451 162.465881,758.150024 
	C162.270782,758.426636 162.075684,758.703308 161.953033,758.971497 
M694.220947,663.008179 
	C689.855652,666.463745 685.158813,669.579834 681.196716,673.448303 
	C673.838623,680.632629 666.991333,688.336487 659.781067,695.676453 
	C650.501831,705.122559 641.418823,714.804016 631.607361,723.671570 
	C623.095398,731.364624 613.425720,737.512451 602.037048,740.543579 
	C587.641846,744.374817 577.872559,737.007263 574.362427,725.687866 
	C573.187866,721.899902 572.419434,717.986023 571.290955,713.424683 
	C570.310974,714.878296 569.544373,715.577698 569.315063,716.422913 
	C566.868530,725.440491 566.601196,734.638184 568.427307,743.711121 
	C570.822327,755.610962 576.156067,766.205627 584.005127,775.574158 
	C594.674866,788.309387 597.524597,802.039673 589.317749,817.390869 
	C582.716675,829.738403 572.318176,838.132751 561.221252,845.908081 
	C557.594604,848.449219 553.705933,850.616272 549.102234,853.472351 
	C552.778503,856.158264 555.186096,858.573669 558.088501,859.931030 
	C576.470154,868.527527 595.731750,871.573730 615.608948,866.856628 
	C636.090210,861.996155 650.573792,849.730591 656.217834,829.054810 
	C658.394165,821.082092 658.528381,812.463318 658.878296,804.108948 
	C659.153931,797.528198 658.130371,790.904175 658.044312,784.294739 
	C657.887939,772.298096 658.089539,760.297058 657.977478,748.299438 
	C657.828186,732.326843 663.782288,718.094849 671.168823,704.546875 
	C678.761108,690.621338 687.451477,677.294373 696.083557,663.335938 
	C696.196045,662.969299 696.308533,662.602722 696.421021,662.236084 
	C695.922852,662.463379 695.424622,662.690735 694.220947,663.008179 
M463.993835,583.694946 
	C464.384521,584.468201 464.775208,585.241455 465.148010,586.532043 
	C465.420685,586.729675 465.693359,586.927368 466.016571,587.810852 
	C466.733429,589.207275 467.450256,590.603638 468.057220,592.703430 
	C468.669434,594.152283 469.281616,595.601135 469.979309,597.905640 
	C470.213501,606.150269 471.662445,614.591125 470.370575,622.589233 
	C468.799194,632.318237 465.476715,641.892456 461.863586,651.123413 
	C458.913177,658.661255 455.254944,666.223022 450.415253,672.647766 
	C443.626892,681.659302 433.771912,684.353149 424.380371,674.889648 
	C417.030121,667.482971 413.360474,657.978394 408.837555,648.852966 
	C399.523895,630.061646 391.383545,610.912781 387.322266,588.807617 
	C385.784454,591.112122 384.767151,592.293945 384.123779,593.652832 
	C376.125397,610.546936 373.809265,628.026306 378.632141,646.291382 
	C382.934387,662.584839 385.420166,679.129639 385.011963,696.039856 
	C384.933990,699.269226 385.000793,702.502014 385.000793,706.125061 
	C475.205627,677.786011 564.621521,649.694824 653.850586,621.662354 
	C650.751526,600.774170 656.329163,581.147278 659.131958,560.977966 
	C653.187195,563.017029 648.138611,564.885254 643.003540,566.474182 
	C637.088013,568.304565 630.985413,569.704041 625.805664,564.865112 
	C623.333069,562.555237 621.319885,559.673096 619.445618,556.822083 
	C616.642517,552.558167 614.145447,548.093140 611.513123,543.705078 
	C606.672546,554.894653 602.288818,565.423096 597.547607,575.787903 
	C595.728027,579.765869 592.839294,582.749512 587.804321,583.081238 
	C582.487183,583.431580 579.195496,580.550354 577.340210,576.455811 
	C574.452087,570.081543 572.406921,563.326233 569.984558,556.739746 
	C569.256104,554.758972 568.461487,552.802490 567.697144,550.834900 
	C565.943909,552.388123 565.359070,553.684448 565.029663,555.042664 
	C561.644470,569.000610 559.162598,583.253357 554.672791,596.843811 
	C551.076111,607.730957 545.145386,617.534302 533.817688,623.264465 
	C525.322571,627.561707 516.415039,622.914612 515.032776,615.016846 
	C513.651550,607.124634 513.168335,599.078186 511.906982,591.160583 
	C511.404388,588.006104 510.763611,583.550537 508.625244,582.246826 
	C503.714264,579.252625 500.709900,574.961060 500.323425,570.073853 
	C499.469025,559.269653 499.901093,548.363525 499.814728,537.498962 
	C499.798737,535.487671 499.812439,533.476135 499.812439,531.464722 
	C499.323883,531.333130 498.835358,531.201538 498.346802,531.069946 
	C497.317047,532.174011 495.953217,533.112732 495.311829,534.408936 
	C491.236176,542.646118 487.218018,550.915405 483.392792,559.271179 
	C481.361267,563.708862 479.755676,568.341553 477.346039,573.186462 
	C475.547302,575.422363 473.748596,577.658264 471.298859,579.984863 
	C470.865906,580.045410 470.432953,580.105957 469.304718,580.053528 
	C467.071198,580.053528 464.837677,580.053528 462.029205,580.053528 
	C462.920135,581.489685 463.400879,582.264648 463.993835,583.694946 
M921.532227,592.856262 
	C921.723633,592.220764 921.914978,591.585327 921.988098,590.463196 
	C921.937256,590.304199 921.886353,590.145142 921.854492,589.468262 
	C921.581909,589.269958 921.309387,589.071655 920.755066,588.276428 
	C913.437744,581.286072 906.348694,574.030579 898.690247,567.436462 
	C895.644043,564.813599 893.136963,561.043762 886.977173,563.208496 
	C867.874084,569.921997 848.343262,575.411743 829.016174,581.496094 
	C796.904663,591.605164 764.838318,601.857727 732.723816,611.957031 
	C695.469727,623.672729 658.185608,635.292725 620.911743,646.945496 
	C597.981873,654.114014 575.040039,661.244568 552.115784,668.430969 
	C516.407532,679.625000 480.710693,690.855469 445.006836,702.063538 
	C428.791870,707.153687 412.503204,712.021912 396.385284,717.402161 
	C389.330566,719.757019 381.757233,721.989807 375.956116,726.331360 
	C367.358215,732.765991 360.838440,741.128174 360.850769,753.227722 
	C360.862793,765.036499 366.482574,773.946411 373.748413,782.159363 
	C385.993866,796.001038 401.043854,806.431152 416.765106,815.838440 
	C424.318481,820.358276 432.048706,825.624817 440.388916,827.526001 
	C451.024567,829.950195 462.353790,829.665588 473.393616,829.808228 
	C477.463074,829.860779 481.575165,827.861694 485.640564,826.702881 
	C492.165222,824.843079 498.563110,822.313599 505.204163,821.142029 
	C514.247070,819.546692 523.468628,818.964233 532.613098,817.943359 
	C544.367432,816.631226 556.101746,815.081970 567.882874,814.087646 
	C574.981812,813.488464 578.123230,811.319885 578.922180,804.350037 
	C579.612915,798.324219 578.998047,792.487915 574.987854,787.471191 
	C572.838257,784.782104 570.706360,782.064514 568.771057,779.220581 
	C550.672485,752.624756 546.937683,724.721619 562.237915,695.670837 
	C568.144714,684.455566 577.353760,676.006531 590.642395,681.656494 
	C589.430542,687.425232 587.744568,693.119324 587.150940,698.925049 
	C586.543701,704.862915 586.638611,710.938293 587.091553,716.902893 
	C587.722107,725.207764 591.050781,729.200989 600.006470,725.978088 
	C604.294556,724.434937 608.531860,722.453979 612.369019,720.007507 
	C626.562378,710.957825 637.542542,698.420593 648.604919,685.983643 
	C651.701294,682.502625 655.420654,679.560425 658.393555,675.987732 
	C669.174194,663.031982 681.525452,651.975830 697.026733,645.114502 
	C707.348816,640.545776 718.294373,639.565247 730.101013,642.309753 
	C727.821960,645.379822 726.069092,647.929993 724.127258,650.327148 
	C706.719788,671.815613 691.292236,694.587952 679.725525,719.782776 
	C675.611511,728.743774 672.584351,737.997192 672.889954,748.229553 
	C673.323853,762.761963 673.000549,777.316895 673.000732,791.862244 
	C673.000793,795.476196 673.000732,799.090210 673.000732,802.900452 
	C675.119629,802.900452 676.622375,803.071045 678.074707,802.872742 
	C687.166382,801.631042 696.238586,800.245117 705.332947,799.024292 
	C720.778748,796.950745 736.294495,795.326294 751.674377,792.851562 
	C772.021362,789.577515 792.273621,785.709839 812.552368,782.019104 
	C841.363403,776.775391 869.815491,770.072937 897.683105,760.988770 
	C916.746399,754.774536 935.596619,747.914124 951.797424,735.829224 
	C957.600098,731.500671 963.691040,725.816650 966.356140,719.385986 
	C971.930420,705.936340 970.835388,691.420898 968.759155,676.430176 
	C905.718201,696.356567 843.362549,716.066345 780.816345,735.836365 
	C780.417175,734.671814 780.202332,734.075073 780.007446,733.471924 
	C776.328186,722.085022 776.362488,722.191345 787.940308,718.523254 
	C821.902954,707.763306 855.828918,696.887451 889.785339,686.107666 
	C900.688660,682.646240 911.661255,679.403137 922.567932,675.951843 
	C936.707275,671.477661 950.812317,666.895203 965.293335,662.243286 
	C964.867249,660.473328 964.593567,658.877686 964.099365,657.353516 
	C958.163757,639.045532 948.318420,622.860168 936.984924,607.481384 
	C934.754456,604.454834 932.266968,603.706055 928.538879,605.107971 
	C910.026001,612.070007 891.426147,618.801392 872.844910,625.581055 
	C852.690857,632.934692 832.523560,640.251892 812.462036,647.548584 
	C811.219116,644.120361 810.322266,640.950806 808.934631,638.013000 
	C807.522766,635.024231 807.830078,633.557983 811.355286,632.760132 
	C814.352722,632.081604 817.146057,630.537048 820.066101,629.476013 
	C853.706482,617.250977 887.353760,605.045044 921.532227,592.856262 
M527.000000,437.419891 
	C527.000000,441.837982 527.000000,446.256042 527.000000,451.078644 
	C530.024597,449.719177 532.606384,448.677063 535.083069,447.426697 
	C554.535278,437.606018 573.985596,427.781097 593.400269,417.886322 
	C609.804993,409.525543 626.198975,409.492767 643.571655,415.619568 
	C675.319153,426.816010 705.916016,440.504395 735.992554,455.486023 
	C737.800720,456.386749 739.680725,457.143372 740.671509,457.585297 
	C743.225037,438.259155 745.738159,419.238434 748.320618,399.693146 
	C746.636536,400.779449 745.342896,401.757294 743.926941,402.502869 
	C737.168579,406.061523 730.026978,406.664124 723.886169,402.052277 
	C719.139404,398.487366 714.823120,393.840454 711.624756,388.837524 
	C706.338379,380.568298 702.693054,371.235870 697.275208,363.068634 
	C691.257751,353.997375 690.536194,344.427124 692.367676,334.431488 
	C695.893005,315.191284 703.215698,297.132721 710.439575,279.066315 
	C711.418640,276.617798 712.222900,274.099335 713.361145,270.902374 
	C701.901672,276.941895 694.173157,273.501190 688.942749,262.717896 
	C682.447266,249.326614 682.099304,235.160126 683.644653,220.737244 
	C683.808289,219.210068 683.309937,217.611954 683.118713,216.046768 
	C682.450867,215.893356 681.783020,215.739960 681.115173,215.586548 
	C679.414185,218.965805 676.739990,222.196594 676.197449,225.752594 
	C674.663635,235.806473 673.890198,245.984161 673.039795,256.131714 
	C672.488281,262.711792 672.996826,269.442688 671.858215,275.899261 
	C669.088684,291.604553 655.745483,299.323578 641.877380,289.220886 
	C635.168152,284.333313 629.646912,277.824280 623.519409,272.122833 
	C621.803833,270.526550 619.845215,269.191345 617.590820,267.415588 
	C617.006531,274.091736 616.397156,279.791870 616.028259,285.507507 
	C614.956543,302.111938 610.220337,317.560181 599.601746,330.437622 
	C593.642639,337.664368 586.045654,343.076202 575.571899,343.145050 
	C566.471191,343.204803 558.442017,340.052948 551.790222,334.903442 
	C541.374023,326.839661 532.041321,317.379639 522.192627,308.574921 
	C521.109253,307.606384 519.652466,307.055603 518.368896,306.311066 
	C518.228882,307.584381 517.852478,308.882599 517.983643,310.127350 
	C520.619751,335.130920 523.858643,360.085999 525.807739,385.141724 
	C527.132385,402.169403 526.665649,419.336456 527.000000,437.419891 
z"/>
<path fill="#4338CA" opacity="1.000000" stroke="none" 
	d="
M921.835510,589.986145 
	C921.886353,590.145142 921.937256,590.304199 921.884521,590.927124 
	C921.520325,591.872009 921.259766,592.353027 920.999268,592.834106 
	C887.353760,605.045044 853.706482,617.250977 820.066101,629.476013 
	C817.146057,630.537048 814.352722,632.081604 811.355286,632.760132 
	C807.830078,633.557983 807.522766,635.024231 808.934631,638.013000 
	C810.322266,640.950806 811.219116,644.120361 812.462036,647.548584 
	C832.523560,640.251892 852.690857,632.934692 872.844910,625.581055 
	C891.426147,618.801392 910.026001,612.070007 928.538879,605.107971 
	C932.266968,603.706055 934.754456,604.454834 936.984924,607.481384 
	C948.318420,622.860168 958.163757,639.045532 964.099365,657.353516 
	C964.593567,658.877686 964.867249,660.473328 965.293335,662.243286 
	C950.812317,666.895203 936.707275,671.477661 922.567932,675.951843 
	C911.661255,679.403137 900.688660,682.646240 889.785339,686.107666 
	C855.828918,696.887451 821.902954,707.763306 787.940308,718.523254 
	C776.362488,722.191345 776.328186,722.085022 780.007446,733.471924 
	C780.202332,734.075073 780.417175,734.671814 780.816345,735.836365 
	C843.362549,716.066345 905.718201,696.356567 968.759155,676.430176 
	C970.835388,691.420898 971.930420,705.936340 966.356140,719.385986 
	C963.691040,725.816650 957.600098,731.500671 951.797424,735.829224 
	C935.596619,747.914124 916.746399,754.774536 897.683105,760.988770 
	C869.815491,770.072937 841.363403,776.775391 812.552368,782.019104 
	C792.273621,785.709839 772.021362,789.577515 751.674377,792.851562 
	C736.294495,795.326294 720.778748,796.950745 705.332947,799.024292 
	C696.238586,800.245117 687.166382,801.631042 678.074707,802.872742 
	C676.622375,803.071045 675.119629,802.900452 673.000732,802.900452 
	C673.000732,799.090210 673.000793,795.476196 673.000732,791.862244 
	C673.000549,777.316895 673.323853,762.761963 672.889954,748.229553 
	C672.584351,737.997192 675.611511,728.743774 679.725525,719.782776 
	C691.292236,694.587952 706.719788,671.815613 724.127258,650.327148 
	C726.069092,647.929993 727.821960,645.379822 730.101013,642.309753 
	C718.294373,639.565247 707.348816,640.545776 697.026733,645.114502 
	C681.525452,651.975830 669.174194,663.031982 658.393555,675.987732 
	C655.420654,679.560425 651.701294,682.502625 648.604919,685.983643 
	C637.542542,698.420593 626.562378,710.957825 612.369019,720.007507 
	C608.531860,722.453979 604.294556,724.434937 600.006470,725.978088 
	C591.050781,729.200989 587.722107,725.207764 587.091553,716.902893 
	C586.638611,710.938293 586.543701,704.862915 587.150940,698.925049 
	C587.744568,693.119324 589.430542,687.425232 590.642395,681.656494 
	C577.353760,676.006531 568.144714,684.455566 562.237915,695.670837 
	C546.937683,724.721619 550.672485,752.624756 568.771057,779.220581 
	C570.706360,782.064514 572.838257,784.782104 574.987854,787.471191 
	C578.998047,792.487915 579.612915,798.324219 578.922180,804.350037 
	C578.123230,811.319885 574.981812,813.488464 567.882874,814.087646 
	C556.101746,815.081970 544.367432,816.631226 532.613098,817.943359 
	C523.468628,818.964233 514.247070,819.546692 505.204163,821.142029 
	C498.563110,822.313599 492.165222,824.843079 485.640564,826.702881 
	C481.575165,827.861694 477.463074,829.860779 473.393616,829.808228 
	C462.353790,829.665588 451.024567,829.950195 440.388916,827.526001 
	C432.048706,825.624817 424.318481,820.358276 416.765106,815.838440 
	C401.043854,806.431152 385.993866,796.001038 373.748413,782.159363 
	C366.482574,773.946411 360.862793,765.036499 360.850769,753.227722 
	C360.838440,741.128174 367.358215,732.765991 375.956116,726.331360 
	C381.757233,721.989807 389.330566,719.757019 396.385284,717.402161 
	C412.503204,712.021912 428.791870,707.153687 445.006836,702.063538 
	C480.710693,690.855469 516.407532,679.625000 552.115784,668.430969 
	C575.040039,661.244568 597.981873,654.114014 620.911743,646.945496 
	C658.185608,635.292725 695.469727,623.672729 732.723816,611.957031 
	C764.838318,601.857727 796.904663,591.605164 829.016174,581.496094 
	C848.343262,575.411743 867.874084,569.921997 886.977173,563.208496 
	C893.136963,561.043762 895.644043,564.813599 898.690247,567.436462 
	C906.348694,574.030579 913.437744,581.286072 921.020508,588.766357 
	C921.458130,589.507812 921.641296,589.751099 921.835510,589.986145 
z"/>
<path fill="#4338CA" opacity="1.000000" stroke="none" 
	d="
M162.985504,758.165649 
	C185.386078,746.762451 207.807861,735.400635 230.179413,723.940796 
	C243.918930,716.902710 257.581665,709.714600 271.609222,702.422180 
	C270.076996,699.251953 268.542389,695.902771 266.849609,692.635620 
	C265.717194,690.449951 264.170929,689.709961 261.650940,691.038879 
	C249.735809,697.322388 237.751617,703.475342 225.775650,709.642944 
	C197.598404,724.154175 169.411942,738.647461 140.698395,753.421143 
	C136.236176,748.206421 131.578094,743.337158 127.598633,737.965210 
	C122.738228,731.404175 118.105919,724.619873 114.001350,717.567627 
	C109.419731,709.695679 112.194519,704.529175 119.328415,700.745422 
	C141.335709,689.072998 162.988449,676.731934 184.776505,664.646240 
	C209.719940,650.810242 234.626343,636.907043 259.615295,623.153748 
	C275.271240,614.537048 291.167297,606.352539 306.748535,597.605286 
	C339.322418,579.318481 371.985260,561.172180 404.186829,542.245483 
	C434.667542,524.330200 464.436371,505.206726 494.837006,487.151245 
	C517.512207,473.684082 540.551453,460.808319 563.709717,448.184937 
	C576.212769,441.369598 589.276367,435.574860 602.141479,429.433777 
	C614.087097,423.731567 626.292725,424.026123 638.377747,428.778351 
	C657.394104,436.256317 676.499451,443.562439 695.192871,451.791473 
	C712.909302,459.590424 730.279663,468.216064 747.549438,476.976471 
	C762.015137,484.314514 776.161011,492.290253 790.357727,500.147644 
	C796.595947,503.600250 796.590027,506.344208 790.315796,510.268494 
	C762.694031,527.544983 735.017212,544.733643 707.331421,561.907532 
	C701.224304,565.695862 694.999268,569.294250 688.153259,573.079102 
	C686.665955,573.823608 685.853882,574.469116 685.041809,575.114563 
	C684.593140,575.407349 684.144409,575.700134 683.086609,576.085449 
	C681.665588,576.823486 680.853699,577.469055 680.041809,578.114563 
	C679.593140,578.407349 679.144470,578.700134 678.029663,579.060059 
	C675.203125,579.738342 673.042725,580.349487 670.882324,580.960693 
	C673.345825,568.448547 675.593567,555.888794 678.342102,543.439575 
	C680.487427,533.722839 683.574036,524.208252 685.551514,514.463623 
	C686.145386,511.537201 685.467834,507.083008 683.542847,505.173431 
	C679.227417,500.892700 674.346069,502.756104 672.135498,508.752289 
	C669.367004,516.262146 666.647278,523.791687 664.032776,531.356445 
	C659.663086,543.999817 650.019958,550.162659 637.645691,552.920593 
	C634.056274,553.720581 632.265808,551.250122 630.801147,548.459534 
	C621.676208,531.073730 616.091980,512.486633 611.969971,493.386719 
	C611.087830,489.299408 610.545654,484.962921 605.874878,482.931732 
	C600.839478,480.742035 597.403442,482.431122 597.114563,487.976257 
	C596.919739,491.716187 597.291626,495.591309 598.085632,499.259674 
	C602.631226,520.260620 597.277771,539.850220 589.876038,559.177490 
	C589.657166,559.748901 589.118164,560.261902 588.606567,560.635193 
	C588.247864,560.896973 587.681580,560.874268 586.478699,561.139221 
	C576.926453,527.401123 575.308533,492.509247 570.057495,457.981659 
	C566.043579,475.274506 561.588989,492.479614 558.125854,509.882050 
	C553.657410,532.336487 550.553162,555.072998 545.690613,577.433411 
	C543.681396,586.672607 538.841370,595.346802 534.822388,604.062866 
	C533.810425,606.257446 531.002197,607.623779 528.565491,609.770752 
	C527.279968,599.356995 526.563354,590.011475 524.778137,580.874695 
	C524.086914,577.337280 521.716553,573.071899 518.795898,571.269653 
	C514.223877,568.448425 512.983093,564.599304 513.127502,560.277466 
	C513.468811,550.062927 513.864380,539.784363 515.325867,529.689087 
	C517.361755,515.625671 520.379761,501.703918 523.004150,487.726501 
	C523.509644,485.033813 524.137512,482.364166 524.925232,478.669128 
	C514.994568,485.903412 504.969818,491.675720 498.166718,501.480469 
	C486.133728,518.822632 477.169434,537.755249 468.907837,557.072998 
	C467.896301,559.438232 466.583588,561.674622 464.697235,565.366577 
	C455.637360,555.476135 447.144989,546.205200 438.610687,536.888489 
	C435.931824,552.188599 435.379578,567.193420 445.261261,580.877075 
	C452.061615,590.293945 457.655853,600.575867 456.867798,612.583618 
	C455.701111,630.360474 449.721985,646.770142 440.464355,661.969971 
	C439.432434,663.664185 438.161957,665.213135 435.985931,666.612366 
	C414.626038,633.304260 400.078400,598.288147 397.800507,558.123962 
	C389.785156,564.146790 382.413361,569.949463 376.970490,577.973206 
	C368.025940,591.159119 363.168365,605.513184 361.777527,621.494507 
	C360.680023,634.105469 363.528442,645.863037 366.415985,657.741699 
	C370.690460,675.325928 370.091705,693.193359 369.848053,711.037109 
	C369.829620,712.387634 368.059601,713.913696 366.803925,715.016785 
	C354.480560,725.842529 345.329163,738.431458 346.175262,755.699524 
	C346.463928,761.590393 348.785889,767.381531 350.296112,773.709839 
	C338.056427,780.959839 325.127075,788.605469 312.210480,796.272583 
	C295.434540,806.230408 278.445984,815.680298 259.550201,821.223816 
	C244.052444,825.770508 228.553696,829.800781 212.164169,829.059814 
	C202.300171,828.613892 194.072037,825.098938 189.669891,818.101624 
	C210.104553,808.423096 230.458099,798.783081 250.984482,789.061157 
	C248.792404,784.650635 246.836243,780.714783 244.595718,776.206726 
	C223.778885,786.038513 202.995056,795.854736 182.673004,805.452820 
	C172.890640,792.909363 163.067749,780.313965 153.102615,767.014954 
	C152.954315,765.508789 152.948242,764.706238 152.942184,763.903625 
	C152.942184,763.903625 152.965302,763.963684 153.309204,763.912048 
	C156.416901,762.206604 159.180679,760.552856 161.944458,758.899048 
	C161.944458,758.899048 161.953033,758.971497 162.106415,758.846436 
	C162.508987,758.545593 162.750885,758.360413 162.985504,758.165649 
z"/>
<path fill="#4338CA" opacity="1.000000" stroke="none" 
	d="
M527.000000,436.930542 
	C526.665649,419.336456 527.132385,402.169403 525.807739,385.141724 
	C523.858643,360.085999 520.619751,335.130920 517.983643,310.127350 
	C517.852478,308.882599 518.228882,307.584381 518.368896,306.311096 
	C519.652466,307.055603 521.109253,307.606384 522.192627,308.574921 
	C532.041321,317.379639 541.374023,326.839661 551.790222,334.903442 
	C558.442017,340.052948 566.471191,343.204803 575.571899,343.145050 
	C586.045654,343.076202 593.642639,337.664368 599.601746,330.437622 
	C610.220337,317.560181 614.956543,302.111938 616.028259,285.507507 
	C616.397156,279.791870 617.006531,274.091736 617.590820,267.415588 
	C619.845215,269.191345 621.803833,270.526550 623.519409,272.122833 
	C629.646912,277.824280 635.168152,284.333313 641.877380,289.220886 
	C655.745483,299.323578 669.088684,291.604553 671.858215,275.899261 
	C672.996826,269.442688 672.488281,262.711792 673.039795,256.131714 
	C673.890198,245.984161 674.663635,235.806473 676.197449,225.752594 
	C676.739990,222.196594 679.414185,218.965805 681.115173,215.586548 
	C681.783020,215.739960 682.450867,215.893356 683.118713,216.046768 
	C683.309937,217.611954 683.808289,219.210068 683.644653,220.737244 
	C682.099304,235.160126 682.447266,249.326614 688.942749,262.717896 
	C694.173157,273.501190 701.901672,276.941895 713.361145,270.902374 
	C712.222900,274.099335 711.418640,276.617798 710.439575,279.066315 
	C703.215698,297.132721 695.893005,315.191284 692.367676,334.431488 
	C690.536194,344.427124 691.257751,353.997375 697.275208,363.068634 
	C702.693054,371.235870 706.338379,380.568298 711.624756,388.837524 
	C714.823120,393.840454 719.139404,398.487366 723.886169,402.052277 
	C730.026978,406.664124 737.168579,406.061523 743.926941,402.502869 
	C745.342896,401.757294 746.636536,400.779449 748.320618,399.693146 
	C745.738159,419.238434 743.225037,438.259155 740.671509,457.585297 
	C739.680725,457.143372 737.800720,456.386749 735.992554,455.486023 
	C705.916016,440.504395 675.319153,426.816010 643.571655,415.619568 
	C626.198975,409.492767 609.804993,409.525543 593.400269,417.886322 
	C573.985596,427.781097 554.535278,437.606018 535.083069,447.426697 
	C532.606384,448.677063 530.024597,449.719177 527.000000,451.078644 
	C527.000000,446.256042 527.000000,441.837982 527.000000,436.930542 
z"/>
<path fill="#4338CA" opacity="1.000000" stroke="none" 
	d="
M477.957825,572.886292 
	C479.755676,568.341553 481.361267,563.708862 483.392792,559.271179 
	C487.218018,550.915405 491.236176,542.646118 495.311829,534.408936 
	C495.953217,533.112732 497.317047,532.174011 498.346802,531.069946 
	C498.835358,531.201538 499.323883,531.333130 499.812439,531.464722 
	C499.812439,533.476135 499.798737,535.487671 499.814728,537.498962 
	C499.901093,548.363525 499.469025,559.269653 500.323425,570.073853 
	C500.709900,574.961060 503.714264,579.252625 508.625244,582.246826 
	C510.763611,583.550537 511.404388,588.006104 511.906982,591.160583 
	C513.168335,599.078186 513.651550,607.124634 515.032776,615.016846 
	C516.415039,622.914612 525.322571,627.561707 533.817688,623.264465 
	C545.145386,617.534302 551.076111,607.730957 554.672791,596.843811 
	C559.162598,583.253357 561.644470,569.000610 565.029663,555.042664 
	C565.359070,553.684448 565.943909,552.388123 567.697144,550.834900 
	C568.461487,552.802490 569.256104,554.758972 569.984558,556.739746 
	C572.406921,563.326233 574.452087,570.081543 577.340210,576.455811 
	C579.195496,580.550354 582.487183,583.431580 587.804321,583.081238 
	C592.839294,582.749512 595.728027,579.765869 597.547607,575.787903 
	C602.288818,565.423096 606.672546,554.894653 611.513123,543.705078 
	C614.145447,548.093140 616.642517,552.558167 619.445618,556.822083 
	C621.319885,559.673096 623.333069,562.555237 625.805664,564.865112 
	C630.985413,569.704041 637.088013,568.304565 643.003540,566.474182 
	C648.138611,564.885254 653.187195,563.017029 659.131958,560.977966 
	C656.329163,581.147278 650.751526,600.774170 653.850586,621.662354 
	C564.621521,649.694824 475.205627,677.786011 385.000793,706.125061 
	C385.000793,702.502014 384.933990,699.269226 385.011963,696.039856 
	C385.420166,679.129639 382.934387,662.584839 378.632141,646.291382 
	C373.809265,628.026306 376.125397,610.546936 384.123779,593.652832 
	C384.767151,592.293945 385.784454,591.112122 387.322266,588.807617 
	C391.383545,610.912781 399.523895,630.061646 408.837555,648.852966 
	C413.360474,657.978394 417.030121,667.482971 424.380371,674.889648 
	C433.771912,684.353149 443.626892,681.659302 450.415253,672.647766 
	C455.254944,666.223022 458.913177,658.661255 461.863586,651.123413 
	C465.476715,641.892456 468.799194,632.318237 470.370575,622.589233 
	C471.662445,614.591125 470.213501,606.150269 470.042480,597.205688 
	C469.459503,595.003906 468.813324,593.501953 468.167114,592.000061 
	C467.450256,590.603638 466.733429,589.207275 465.866028,587.277100 
	C465.542969,586.492432 465.359772,586.249512 465.165894,586.014709 
	C464.775208,585.241455 464.384521,584.468201 464.290405,583.281616 
	C466.391327,581.967712 468.195648,581.067139 470.000000,580.166565 
	C470.432953,580.105957 470.865906,580.045410 471.893188,580.029175 
	C476.899200,579.647705 477.309479,576.176392 477.957825,572.886292 
z"/>
<path fill="#4338CA" opacity="1.000000" stroke="none" 
	d="
M695.661377,663.705505 
	C687.451477,677.294373 678.761108,690.621338 671.168823,704.546875 
	C663.782288,718.094849 657.828186,732.326843 657.977478,748.299438 
	C658.089539,760.297058 657.887939,772.298096 658.044312,784.294739 
	C658.130371,790.904175 659.153931,797.528198 658.878296,804.108948 
	C658.528381,812.463318 658.394165,821.082092 656.217834,829.054810 
	C650.573792,849.730591 636.090210,861.996155 615.608948,866.856628 
	C595.731750,871.573730 576.470154,868.527527 558.088501,859.931030 
	C555.186096,858.573669 552.778503,856.158264 549.102234,853.472351 
	C553.705933,850.616272 557.594604,848.449219 561.221252,845.908081 
	C572.318176,838.132751 582.716675,829.738403 589.317749,817.390869 
	C597.524597,802.039673 594.674866,788.309387 584.005127,775.574158 
	C576.156067,766.205627 570.822327,755.610962 568.427307,743.711121 
	C566.601196,734.638184 566.868530,725.440491 569.315063,716.422913 
	C569.544373,715.577698 570.310974,714.878296 571.290955,713.424683 
	C572.419434,717.986023 573.187866,721.899902 574.362427,725.687866 
	C577.872559,737.007263 587.641846,744.374817 602.037048,740.543579 
	C613.425720,737.512451 623.095398,731.364624 631.607361,723.671570 
	C641.418823,714.804016 650.501831,705.122559 659.781067,695.676453 
	C666.991333,688.336487 673.838623,680.632629 681.196716,673.448303 
	C685.158813,669.579834 689.855652,666.463745 694.757202,663.160217 
	C695.416016,663.443298 695.538696,663.574402 695.661377,663.705505 
z"/>
<path fill="#4338CA" opacity="1.000000" stroke="none" 
	d="
M184.044144,551.888123 
	C191.514587,552.922729 198.958618,554.247620 206.461090,554.930481 
	C221.421204,556.292053 234.882904,547.103027 240.002563,532.650085 
	C243.979202,521.423889 243.592346,510.107056 241.261337,498.677612 
	C241.067383,497.726562 241.136017,496.721985 240.997635,494.181396 
	C245.541382,500.137054 248.962784,505.266998 253.035095,509.813965 
	C259.808075,517.376465 265.701355,526.566833 276.360199,528.934937 
	C285.908051,531.056152 295.789978,532.751465 305.514496,532.701050 
	C315.539764,532.649170 320.489716,524.328735 324.797363,516.378357 
	C326.337891,513.535156 327.481598,510.476959 329.424713,506.135498 
	C332.054901,509.486389 334.382965,511.760284 335.888367,514.488159 
	C343.003204,527.380798 349.893158,540.397522 357.094727,553.800842 
	C310.072510,579.507080 263.069244,605.202942 216.334671,630.751892 
	C205.864227,613.722717 195.441498,596.771057 184.921600,579.149780 
	C184.183044,577.671631 183.541641,576.863281 182.900223,576.054871 
	C182.900223,576.054871 182.960068,576.034912 182.886093,575.749207 
	C182.174637,574.660706 181.537155,573.857971 180.899658,573.055237 
	C180.899658,573.055237 180.959534,573.035400 180.885712,572.749695 
	C180.174667,571.661011 179.537445,570.858032 178.900208,570.054993 
	C178.900223,570.054993 178.960114,570.034851 178.901978,569.721375 
	C177.862915,568.290649 176.881958,567.173401 175.901016,566.056152 
	C175.901016,566.056152 175.960876,566.035156 175.886444,565.749512 
	C175.174637,564.660889 174.537277,563.857971 173.899918,563.055054 
	C173.899918,563.055054 173.959808,563.034973 173.901794,562.721558 
	C172.862869,561.290771 171.881973,560.173462 170.901093,559.056152 
	C170.901093,559.056152 170.960968,559.034851 170.903503,558.704163 
	C169.710159,555.671875 168.574265,552.970276 167.278320,549.888000 
	C170.885651,549.888000 173.464874,549.888000 176.044098,549.888000 
	C176.481110,549.935608 176.918121,549.983276 177.862717,550.357056 
	C180.261581,551.084839 182.152863,551.486511 184.044144,551.888123 
z"/>
<path fill="#4338CA" opacity="1.000000" stroke="none" 
	d="
M175.832031,549.575134 
	C173.464874,549.888000 170.885651,549.888000 167.278320,549.888000 
	C168.574265,552.970276 169.710159,555.671875 170.893219,558.734253 
	C167.704971,555.200195 164.469574,551.305420 161.234177,547.410645 
	C161.621841,546.866150 162.009491,546.321594 162.397141,545.777039 
	C166.804749,546.938782 171.212372,548.100525 175.832031,549.575134 
z"/>
<path fill="#4338CA" opacity="1.000000" stroke="none" 
	d="
M477.651947,573.036377 
	C477.309479,576.176392 476.899200,579.647705 472.218689,579.983887 
	C473.748596,577.658264 475.547302,575.422363 477.651947,573.036377 
z"/>
<path fill="#4338CA" opacity="1.000000" stroke="none" 
	d="
M469.652344,580.110046 
	C468.195648,581.067139 466.391327,581.967712 464.234314,582.953979 
	C463.400879,582.264648 462.920135,581.489685 462.029205,580.053528 
	C464.837677,580.053528 467.071198,580.053528 469.652344,580.110046 
z"/>
<path fill="#4337CA" opacity="1.000000" stroke="none" 
	d="
M161.584839,758.951294 
	C159.180679,760.552856 156.416901,762.206604 153.279114,763.900696 
	C155.678482,762.295105 158.451859,760.649292 161.584839,758.951294 
z"/>
<path fill="#4337CA" opacity="1.000000" stroke="none" 
	d="
M670.634888,581.141113 
	C673.042725,580.349487 675.203125,579.738342 677.738892,579.084717 
	C675.796814,580.677063 674.118286,584.477966 670.634888,581.141113 
z"/>
<path fill="#4338CA" opacity="1.000000" stroke="none" 
	d="
M183.841675,551.581360 
	C182.152863,551.486511 180.261581,551.084839 178.185532,550.425293 
	C179.880234,550.536438 181.759720,550.905518 183.841675,551.581360 
z"/>
<path fill="#4338CA" opacity="1.000000" stroke="none" 
	d="
M468.112183,592.351746 
	C468.813324,593.501953 469.459503,595.003906 469.999756,596.777893 
	C469.281616,595.601135 468.669434,594.152283 468.112183,592.351746 
z"/>
<path fill="#4338CA" opacity="1.000000" stroke="none" 
	d="
M170.950287,559.386108 
	C171.881973,560.173462 172.862869,561.290771 173.892059,562.751587 
	C172.960068,561.968750 171.979767,560.842407 170.950287,559.386108 
z"/>
<path fill="#4338CA" opacity="1.000000" stroke="none" 
	d="
M175.950272,566.386108 
	C176.881958,567.173401 177.862915,568.290649 178.892181,569.751404 
	C177.960190,568.968567 176.979858,567.842285 175.950272,566.386108 
z"/>
<path fill="#4337CA" opacity="1.000000" stroke="none" 
	d="
M685.366211,575.059937 
	C685.853882,574.469116 686.665955,573.823608 687.796387,573.110291 
	C687.306702,573.696777 686.498718,574.351074 685.366211,575.059937 
z"/>
<path fill="#4337CA" opacity="1.000000" stroke="none" 
	d="
M152.612091,763.955811 
	C152.948242,764.706238 152.954315,765.508789 152.959137,766.712708 
	C152.732605,766.078674 152.507309,765.043335 152.612091,763.955811 
z"/>
<path fill="#4338CA" opacity="1.000000" stroke="none" 
	d="
M173.948761,563.377075 
	C174.537277,563.857971 175.174637,564.660889 175.876297,565.779541 
	C175.292923,565.296570 174.645264,564.497864 173.948761,563.377075 
z"/>
<path fill="#4338CA" opacity="1.000000" stroke="none" 
	d="
M178.948944,570.377075 
	C179.537445,570.858032 180.174667,571.661011 180.876160,572.779785 
	C180.292847,572.296692 179.645264,571.497925 178.948944,570.377075 
z"/>
<path fill="#4337CA" opacity="1.000000" stroke="none" 
	d="
M680.366211,578.059937 
	C680.853699,577.469055 681.665588,576.823486 682.795898,576.110107 
	C682.306396,576.696594 681.498474,577.351013 680.366211,578.059937 
z"/>
<path fill="#4338CA" opacity="1.000000" stroke="none" 
	d="
M182.949173,576.378967 
	C183.541641,576.863281 184.183044,577.671631 184.891113,578.797119 
	C184.304565,578.310547 183.651352,577.506775 182.949173,576.378967 
z"/>
<path fill="#4338CA" opacity="1.000000" stroke="none" 
	d="
M180.948547,573.377319 
	C181.537155,573.857971 182.174637,574.660706 182.876434,575.779236 
	C182.292969,575.296448 181.645187,574.497864 180.948547,573.377319 
z"/>
<path fill="#4237CA" opacity="1.000000" stroke="none" 
	d="
M921.265747,592.845215 
	C921.259766,592.353027 921.520325,591.872009 921.943604,591.170410 
	C921.914978,591.585327 921.723633,592.220764 921.265747,592.845215 
z"/>
<path fill="#4338CA" opacity="1.000000" stroke="none" 
	d="
M695.109924,663.115112 
	C695.424622,662.690735 695.922852,662.463379 696.421021,662.236084 
	C696.308533,662.602722 696.196045,662.969299 695.872437,663.520752 
	C695.538696,663.574402 695.416016,663.443298 695.109924,663.115112 
z"/>
<path fill="#4237CA" opacity="1.000000" stroke="none" 
	d="
M921.844971,589.727173 
	C921.641296,589.751099 921.458130,589.507812 921.161377,589.064819 
	C921.309387,589.071655 921.581909,589.269958 921.844971,589.727173 
z"/>
<path fill="#4338CA" opacity="1.000000" stroke="none" 
	d="
M465.156952,586.273376 
	C465.359772,586.249512 465.542969,586.492432 465.840759,586.934204 
	C465.693359,586.927368 465.420685,586.729675 465.156952,586.273376 
z"/>
<path fill="#4337CA" opacity="1.000000" stroke="none" 
	d="
M162.725693,758.157837 
	C162.750885,758.360413 162.508987,758.545593 162.070190,758.850586 
	C162.075684,758.703308 162.270782,758.426636 162.725693,758.157837 
z"/>
</svg>